<!DOCTYPE svg PUBLIC "-//W3C//DTD SVG 1.1//EN" "http://www.w3.org/Graphics/SVG/1.1/DTD/svg11.dtd">
<!-- Uploaded to: SVG Repo, www.svgrepo.com, Transformed by: SVG Repo Mixer Tools -->
<svg height="100px" width="100px" version="1.1" id="Layer_1" xmlns="http://www.w3.org/2000/svg" xmlns:xlink="http://www.w3.org/1999/xlink" viewBox="0 0 468 468" xml:space="preserve" fill="#000000">
<g id="SVGRepo_bgCarrier" stroke-width="0"/>
<g id="SVGRepo_tracerCarrier" stroke-linecap="round" stroke-linejoin="round"/>
<g id="SVGRepo_iconCarrier"> <g> <path style="fill:#FFF8EF;" d="M261.2,429.6h17.6v21.6h-172v-21.6H218c4.8,0,8.8-4,8.8-8.8s-4-8.8-8.8-8.8H108.4 c-8.8-1.6-16-12-16-24V158.4c0-3.2,1.6-5.6,4-5.6H290c2.4,0,4,2.4,4,5.6v228.8c0,12.8-7.2,22.4-16,24h-17.6c-4.8,0-8.8,4-8.8,8.8 C252.4,425.6,256.4,429.6,261.2,429.6z"/> <path style="fill:#FFF8EF;" d="M395.6,309.6c4.8,0,8.8-4,8.8-8.8v-74.4c0-4.8-4-8.8-8.8-8.8h-44.8v-6.4h62.4v105.6h-62.4v-6.4h44.8 V309.6z"/> </g> <g> <path style="fill:#D9CDC1;" d="M326.8,152.8c3.2,0,5.6,2.4,5.6,5.6v228.8c0,12.8-9.6,22.4-21.6,24h-32c8.8-1.6,16-12,16-24V158.4 c0-3.2-1.6-5.6-4-5.6H326.8z"/> <path style="fill:#D9CDC1;" d="M308.4,429.6c0.8,0,1.6,0,1.6,0v21.6h-32v-21.6H308.4z"/> </g> <g> <path style="fill:#42210B;" d="M278.8,36.8v73.6c0,4.8-4,8.8-8.8,8.8s-8.8-4-8.8-8.8V36.8c0-4.8,4-8.8,8.8-8.8 S278.8,31.2,278.8,36.8z"/> <path style="fill:#42210B;" d="M198.8,8.8v101.6c0,4.8-4,8.8-8.8,8.8s-8.8-4-8.8-8.8V8.8c0-4.8,4-8.8,8.8-8.8S198.8,4,198.8,8.8z"/> <path style="fill:#42210B;" d="M118.8,36.8v73.6c0,4.8-4,8.8-8.8,8.8s-8.8-4-8.8-8.8V36.8c0-4.8,4-8.8,8.8-8.8 C114.8,27.2,118.8,31.2,118.8,36.8z"/> </g> <g> <path style="fill:#D9CDC1;" d="M92.4,387.2c0,12.8,7.2,22.4,16,24h-32c-12-1.6-21.6-12-21.6-24V158.4c0-3.2,2.4-5.6,5.6-5.6h36.8 c-2.4,0-4,2.4-4,5.6v228.8H92.4z"/> <path style="fill:#D9CDC1;" d="M78.8,429.6H106v21.6H73.2v-22.4h2.4C77.2,428.8,78,429.6,78.8,429.6z"/> </g> <path style="fill:#42210B;" d="M386.8,291.2v-56.8h-36v56.8H386.8z M395.6,217.6c4.8,0,8.8,4,8.8,8.8v74.4c0,4.8-4,8.8-8.8,8.8 h-44.8v6.4h62.4V211.2h-62.4v6.4L395.6,217.6L395.6,217.6z M333.2,158.4c0-3.2-2.4-5.6-5.6-5.6h-36.8H97.2H60.4 c-3.2,0-5.6,2.4-5.6,5.6v228.8c0,12.8,9.6,22.4,21.6,24h32H218c4.8,0,8.8,4,8.8,8.8s-4,8.8-8.8,8.8H106.8h-28c-0.8,0-1.6,0-2.4,0H74 v21.6h32.8h172h32v-21.6c-0.8,0-0.8,0-1.6,0h-30.4h-17.6c-4.8,0-8.8-4-8.8-8.8s4-8.8,8.8-8.8h17.6h32c12-1.6,21.6-12,21.6-24V158.4 H333.2z M350.8,387.2c0,16-8.8,30.4-22.4,36.8v35.2c0,4.8-4,8.8-8.8,8.8H65.2c-4.8,0-8.8-4-8.8-8.8v-37.6 c-11.2-8-19.2-20.8-19.2-35.2v-228c0-12.8,10.4-23.2,23.2-23.2h266.4c12.8,0,24,10.4,24,23.2v34.4H422c4.8,0,8.8,4,8.8,8.8v123.2 c0,4.8-4,8.8-8.8,8.8h-71.2V387.2z"/> </g>
</svg>